<svg version="1.2" baseProfile="tiny" id="EdgeSVG_XMaGD" x="0px" y="0px" width="101.44px" height="58.583px" viewBox="0 0 101.44 58.583" xmlns:xlink="http://www.w3.org/1999/xlink" xmlns="http://www.w3.org/2000/svg">
  <linearGradient id="SVGID_1_" gradientUnits="userSpaceOnUse" x1="0" y1="29.2915" x2="101.4399" y2="29.2915">
    <stop offset="0" style="stop-color:#000000;stop-opacity:0.5"/>
    <stop offset="1" style="stop-color:#000000;stop-opacity:0.5"/>
  </linearGradient>
  <path fill="url(#SVGID_1_)" d="M2.72,58.583c-1.5,0-2.72-1.22-2.72-2.72V2.72C0,1.22,1.22,0,2.72,0h96c1.5,0,2.72,1.22,2.72,2.72&#xD;&#xA;&#x9;v53.143c0,1.5-1.22,2.72-2.72,2.72H2.72z"/>
  <path fill="#EC1C2E" d="M98.72,0.72h-96c-1.101,0-2,0.9-2,2v53.143c0,1.1,0.899,2,2,2h96c1.1,0,2-0.9,2-2V2.72&#xD;&#xA;&#x9;C100.72,1.62,99.82,0.72,98.72,0.72z"/>
  <g>
    <path d="M50.72,19.408c-0.425-0.07-0.435-0.199-0.222-0.493c0.091-0.125,0.017-0.199-0.278-0.114&#xD;&#xA;&#x9;&#x9;c-0.219,0.063-0.466-0.238-0.576-0.378c-0.102-0.128-0.092-0.151,0.03-0.151s0.35-0.106,0.409-0.181&#xD;&#xA;&#x9;&#x9;c0.061-0.077,0.046-0.167-0.121-0.137c-0.167,0.031-0.661-0.22-0.849-0.47c-0.09-0.12-0.106-0.181,0.045-0.227&#xD;&#xA;&#x9;&#x9;c0.151-0.045,0.303-0.136,0.409-0.211c0.106-0.077,0.045-0.167-0.152-0.197c-0.196-0.031-0.626-0.261-0.818-0.5&#xD;&#xA;&#x9;&#x9;c-0.061-0.076-0.122-0.167,0.061-0.212c0.181-0.045,0.621-0.348,0.743-0.515c0.121-0.167,0.135-0.348-0.212-0.196&#xD;&#xA;&#x9;&#x9;c-0.35,0.151-1.046,0.196-1.455,0.106c-0.864-0.409-2.123-0.94-2.606-0.167c-0.819-0.045-1.804-0.091-1.623,0.924&#xD;&#xA;&#x9;&#x9;c0.163-0.015,0.253-0.108,0.304-0.211c0.071-0.148,0.314-0.174,0.545-0.091c0.202,0.073,0.365,0.179,0.216,0.356&#xD;&#xA;&#x9;&#x9;c-0.075,0.091-0.371,0.137-0.552,0.091c-0.182-0.046-0.521-0.099-0.716-0.121c-0.133-0.016-0.395-0.183-0.517-0.417&#xD;&#xA;&#x9;&#x9;c-0.12-0.236-0.431-0.515-0.629-0.349c-0.197,0.167,0.039,0.447,0.235,0.622c0.197,0.173,0.6,0.394,0.811,0.394&#xD;&#xA;&#x9;&#x9;c0.281,0,0.554,0.068,0.697,0.098c0.069,0.535,0.773,0.778,1.364,0.762c0.591-0.015,1.372,0.272,2.092,0.867&#xD;&#xA;&#x9;&#x9;c0.932,0.771,1.59,3.316,0.014,3.316c-0.984,0-0.833-0.985-0.803-1.546c0.03-0.561-0.273-1.167-0.939-1.409&#xD;&#xA;&#x9;&#x9;s-2.031-0.713-2.41-0.924c-0.151-0.106-0.312,0.269-0.333,0.485c-0.016,0.151-0.186,0.165-0.667,0.016&#xD;&#xA;&#x9;&#x9;c-1.364-0.425-2.606-1.152-3.198-2.273c-0.591-1.122-1.706-0.02-1.152,0.925c0.667,1.136,2.896,2.06,4.304,2.242&#xD;&#xA;&#x9;&#x9;c0.655,0.084,0.649,0.868,0.031,0.955c-1.289,0.182-2.548,0.158-3.334-0.863c-0.605-0.789-1.202-0.081-0.939,0.545&#xD;&#xA;&#x9;&#x9;c0.561,1.334,2.463,1.896,4.319,1c0.439-0.212,0.911-0.176,0.531,0.349c-0.955,1.318-2.226,1.522-3.819,0.545&#xD;&#xA;&#x9;&#x9;c-0.47-0.288-0.833-0.242-0.94-0.061c-0.186,0.319-0.271,0.608,0.273,1c1.197,0.863,2.584,0.804,3.698,0.227&#xD;&#xA;&#x9;&#x9;c0.44-0.227,1.242-0.409,0.53,0.531c-0.713,0.939-2.531,1.424-3.274,0.894c-0.742-0.531-1.667-0.045-1.075,0.773&#xD;&#xA;&#x9;&#x9;c0.591,0.818,1.818,0.606,2.38,0.303c0.561-0.303,1.424-0.712,1.788-0.879c0.363-0.167,0.533,0.118,0.122,0.591&#xD;&#xA;&#x9;&#x9;c-0.925,1.062-1.878,1.952-3.167,1.531c-0.743-0.244-1.425-0.273-1.229,0.636c0.198,0.909,1.728,0.97,2.486,0.515&#xD;&#xA;&#x9;&#x9;c0.757-0.455,1.439-0.97,1.894-1.41s0.915-0.422,0.409,0.318c-1.137,1.667-2.107,2.888-3.728,2.576&#xD;&#xA;&#x9;&#x9;c-1.5-0.288-1.127,0.613-0.804,0.895c0.924,0.803,2.547,0.591,4.486-1.789c0.151-0.185,0.406-0.132,0.273,0.212&#xD;&#xA;&#x9;&#x9;c-0.863,2.228-2.304,3.667-3.698,3.319c-0.725-0.182-1.433,0.222-0.698,0.864c0.834,0.728,2.349,0.455,3.44-0.758&#xD;&#xA;&#x9;&#x9;c1.091-1.212,1.759-2.077,2.001-2.531s0.605-0.47,0.561,0.122c-0.045,0.59-0.485,1.742-1.258,2.121c-0.4,0.196-0.757,0.637,0,0.97&#xD;&#xA;&#x9;&#x9;c0.758,0.334,1.651-1.016,2.379-2.985c0.085-0.231,0.587-0.289,0.577,0.152c-0.016,0.621-0.318,1.136-0.652,1.439&#xD;&#xA;&#x9;&#x9;s-0.072,0.81,0.378,0.606c0.637-0.288,1.04-0.711,1.289-1.349c0.136-0.348,0.444-0.469,0.273,0.076&#xD;&#xA;&#x9;&#x9;c-0.515,1.637-1.668,2.424-3.183,3.183c0.227,0.227,0.432,0.478,0.637,0.682c-0.932,0.477-1.911,0.794-2.683,1.113&#xD;&#xA;&#x9;&#x9;c-0.613-0.409-1.16-0.636-1.432-1.022c-0.092-0.522-0.727-0.75-1.138-0.522c-0.704-0.273-1.204-0.205-1.25,0.454&#xD;&#xA;&#x9;&#x9;c0.41-0.068,0.75-0.136,1.046,0.137c0.137,0.318,0.569,0.478,0.979,0.341c0.454,0.273,0.841,0.545,1.113,0.728&#xD;&#xA;&#x9;&#x9;c-0.863-0.023-1.5-0.069-1.954-0.114c-0.433-0.432-0.841-0.432-1.16-0.136c-0.523-0.114-0.932,0.129-1.069,0.584&#xD;&#xA;&#x9;&#x9;c0.395-0.046,0.758-0.183,1.016-0.046c0.212,0.395,0.804,0.41,1.182,0.121c0.576-0.016,1.698-0.03,1.956-0.03&#xD;&#xA;&#x9;&#x9;c-0.379,0.227-0.833,0.5-1.061,0.637c-0.895-0.182-1.378,0.167-1.319,0.818c-0.212,0.333-0.197,0.803,0.062,1.015&#xD;&#xA;&#x9;&#x9;c0.06-0.272,0.211-0.622,0.423-0.818c0.546,0.106,0.939-0.076,1.106-0.682c0.348-0.228,0.802-0.515,0.985-0.637&#xD;&#xA;&#x9;&#x9;c0.183-0.121,0.328-0.26,0.743-0.075c0.409,0.182,0.788,0.333,1.03,0.47c0.136,0.531,0.651,0.561,0.985,0.318&#xD;&#xA;&#x9;&#x9;c0.212,0.121,0.393,0.333,0.515,0.561c0.196-0.348,0.09-0.818-0.288-0.94c-0.137-0.409-0.621-0.545-0.971-0.348&#xD;&#xA;&#x9;&#x9;c-0.287-0.122-0.696-0.318-0.879-0.395c0.592-0.212,2.092-0.773,2.623-1c0.5,0.379,1.06,0.743,1.47,0.637&#xD;&#xA;&#x9;&#x9;c0.06-0.364,0.247-0.663,0.5-1.182c0.401-0.826,0.902-1.599,1.311-2.076s0.823-0.204,0.794,0.455&#xD;&#xA;&#x9;&#x9;c-0.067,1.591-1.242,3.971-2.969,4.062c-0.591,0.031-0.826,0.152-0.501,0.591c0.303,0.41,1.243,0.462,1.766,0.076&#xD;&#xA;&#x9;&#x9;c0.522-0.386,0.705-0.364,0.599,0.151c-0.106,0.515-0.699,0.712-1.136,0.743c-0.637,0.045-1.364,0.273-0.774,0.819&#xD;&#xA;&#x9;&#x9;c0.592,0.545,1.561,0.242,2.274-0.577c0.247-0.284,0.441-0.364,0.423,0.091c-0.03,0.788-0.5,1.289-0.983,1.395&#xD;&#xA;&#x9;&#x9;c-0.485,0.106-0.971,0.233-0.835,0.515c0.228,0.47,0.986,0.545,1.41,0.318c0.424-0.227,0.88-0.652,0.971-0.91&#xD;&#xA;&#x9;&#x9;c0.09-0.257,0.277-0.11,0.228,0.244c-0.106,0.757-0.637,0.742-0.637,1.363s0.515,1.228,1.121,1.91&#xD;&#xA;&#x9;&#x9;c0.605-0.682,1.122-1.288,1.122-1.91s-0.531-0.606-0.637-1.363c-0.049-0.354,0.136-0.5,0.227-0.244&#xD;&#xA;&#x9;&#x9;c0.09,0.258,0.546,0.683,0.971,0.91s1.182,0.151,1.409-0.318c0.136-0.282-0.35-0.409-0.834-0.515s-0.955-0.606-0.984-1.395&#xD;&#xA;&#x9;&#x9;c-0.018-0.455,0.176-0.375,0.424-0.091c0.713,0.818,1.682,1.122,2.273,0.577c0.59-0.545-0.136-0.773-0.773-0.819&#xD;&#xA;&#x9;&#x9;c-0.438-0.031-1.031-0.228-1.136-0.743c-0.106-0.515,0.075-0.537,0.599-0.151c0.522,0.387,1.462,0.334,1.765-0.076&#xD;&#xA;&#x9;&#x9;c0.326-0.439,0.091-0.56-0.499-0.591c-1.729-0.091-2.903-2.47-2.971-4.062c-0.028-0.659,0.386-0.932,0.795-0.455&#xD;&#xA;&#x9;&#x9;c0.408,0.478,0.91,1.25,1.313,2.076c0.25,0.519,0.438,0.818,0.499,1.182c0.409,0.106,0.97-0.257,1.47-0.637&#xD;&#xA;&#x9;&#x9;c0.53,0.228,2.03,0.788,2.621,1c-0.181,0.076-0.591,0.273-0.879,0.395c-0.348-0.197-0.833-0.061-0.969,0.348&#xD;&#xA;&#x9;&#x9;c-0.379,0.122-0.485,0.592-0.289,0.94c0.122-0.228,0.303-0.44,0.516-0.561c0.334,0.243,0.85,0.213,0.984-0.318&#xD;&#xA;&#x9;&#x9;c0.244-0.137,0.623-0.288,1.031-0.47c0.415-0.185,0.561-0.045,0.742,0.075c0.183,0.122,0.637,0.409,0.984,0.637&#xD;&#xA;&#x9;&#x9;c0.168,0.606,0.563,0.788,1.107,0.682c0.213,0.196,0.363,0.546,0.424,0.818c0.258-0.212,0.273-0.682,0.061-1.015&#xD;&#xA;&#x9;&#x9;c0.061-0.652-0.424-1-1.318-0.818c-0.227-0.137-0.682-0.41-1.06-0.637c0.257,0,1.378,0.014,1.954,0.03&#xD;&#xA;&#x9;&#x9;c0.379,0.289,0.971,0.273,1.182-0.121c0.258-0.136,0.621,0,1.016,0.046c-0.137-0.455-0.545-0.698-1.068-0.584&#xD;&#xA;&#x9;&#x9;c-0.318-0.296-0.727-0.296-1.16,0.136c-0.454,0.045-1.09,0.091-1.954,0.114c0.273-0.182,0.659-0.455,1.114-0.728&#xD;&#xA;&#x9;&#x9;c0.409,0.137,0.84-0.022,0.977-0.341c0.297-0.272,0.637-0.205,1.047-0.137c-0.045-0.659-0.547-0.728-1.25-0.454&#xD;&#xA;&#x9;&#x9;c-0.41-0.228-1.047,0-1.137,0.522c-0.273,0.387-0.818,0.614-1.434,1.022c-0.771-0.318-1.749-0.636-2.682-1.113&#xD;&#xA;&#x9;&#x9;c0.205-0.205,0.41-0.455,0.637-0.682c-1.516-0.758-2.667-1.546-3.182-3.183c-0.172-0.545,0.136-0.424,0.271-0.076&#xD;&#xA;&#x9;&#x9;c0.25,0.638,0.652,1.061,1.289,1.349c0.45,0.204,0.712-0.303,0.378-0.606s-0.636-0.818-0.651-1.439&#xD;&#xA;&#x9;&#x9;c-0.012-0.441,0.49-0.383,0.576-0.152c0.728,1.97,1.622,3.319,2.379,2.985c0.758-0.333,0.401-0.773,0-0.97&#xD;&#xA;&#x9;&#x9;c-0.772-0.379-1.211-1.531-1.258-2.121c-0.045-0.591,0.318-0.576,0.562-0.122c0.242,0.454,0.909,1.318,1.999,2.531&#xD;&#xA;&#x9;&#x9;c1.092,1.212,2.607,1.485,3.441,0.758c0.734-0.642,0.027-1.046-0.697-0.864c-1.395,0.349-2.834-1.091-3.697-3.319&#xD;&#xA;&#x9;&#x9;c-0.135-0.344,0.12-0.397,0.271-0.212c1.94,2.379,3.563,2.592,4.486,1.789c0.324-0.282,0.695-1.183-0.805-0.895&#xD;&#xA;&#x9;&#x9;c-1.619,0.312-2.59-0.909-3.727-2.576c-0.505-0.741-0.045-0.758,0.408-0.318c0.456,0.439,1.139,0.955,1.896,1.41&#xD;&#xA;&#x9;&#x9;c0.757,0.455,2.288,0.394,2.485-0.515c0.197-0.91-0.486-0.88-1.229-0.636c-1.289,0.42-2.242-0.47-3.166-1.531&#xD;&#xA;&#x9;&#x9;c-0.412-0.473-0.243-0.758,0.121-0.591c0.363,0.167,1.228,0.576,1.788,0.879c0.561,0.303,1.788,0.516,2.378-0.303&#xD;&#xA;&#x9;&#x9;c0.592-0.819-0.334-1.304-1.074-0.773c-0.743,0.531-2.563,0.046-3.273-0.894c-0.713-0.94,0.09-0.758,0.53-0.531&#xD;&#xA;&#x9;&#x9;c1.113,0.577,2.499,0.636,3.698-0.227c0.541-0.393,0.457-0.681,0.271-1c-0.105-0.181-0.471-0.228-0.939,0.061&#xD;&#xA;&#x9;&#x9;c-1.592,0.977-2.864,0.773-3.818-0.545c-0.381-0.525,0.091-0.561,0.531-0.349c1.854,0.896,3.756,0.333,4.316-1&#xD;&#xA;&#x9;&#x9;c0.266-0.625-0.332-1.333-0.939-0.545c-0.783,1.021-2.045,1.045-3.334,0.863c-0.618-0.087-0.623-0.87,0.031-0.955&#xD;&#xA;&#x9;&#x9;c1.41-0.182,3.637-1.106,4.305-2.242c0.553-0.944-0.561-2.046-1.152-0.925c-0.592,1.121-1.833,1.849-3.197,2.273&#xD;&#xA;&#x9;&#x9;c-0.481,0.149-0.65,0.136-0.666-0.016c-0.022-0.216-0.184-0.591-0.334-0.485c-0.38,0.211-1.744,0.682-2.41,0.924&#xD;&#xA;&#x9;&#x9;c-0.667,0.243-0.97,0.848-0.939,1.409c0.031,0.561,0.182,1.546-0.803,1.546c-1.576,0-0.916-2.545,0.016-3.316&#xD;&#xA;&#x9;&#x9;c0.719-0.595,1.5-0.882,2.092-0.867c0.59,0.016,1.294-0.227,1.362-0.762c0.144-0.03,0.417-0.098,0.698-0.098&#xD;&#xA;&#x9;&#x9;c0.211,0,0.613-0.22,0.81-0.394c0.196-0.175,0.433-0.456,0.235-0.622c-0.196-0.166-0.508,0.113-0.629,0.349&#xD;&#xA;&#x9;&#x9;c-0.121,0.234-0.383,0.401-0.516,0.417c-0.196,0.022-0.533,0.075-0.717,0.121c-0.181,0.046-0.477,0-0.553-0.091&#xD;&#xA;&#x9;&#x9;c-0.146-0.177,0.015-0.283,0.217-0.356c0.23-0.083,0.474-0.057,0.546,0.091c0.05,0.104,0.14,0.197,0.303,0.211&#xD;&#xA;&#x9;&#x9;c0.182-1.015-0.804-0.969-1.622-0.924c-0.484-0.773-1.742-0.242-2.605,0.167c-0.411,0.09-1.107,0.045-1.455-0.106&#xD;&#xA;&#x9;&#x9;c-0.349-0.152-0.334,0.029-0.213,0.196s0.561,0.47,0.743,0.515c0.181,0.045,0.12,0.137,0.06,0.212&#xD;&#xA;&#x9;&#x9;c-0.191,0.239-0.621,0.47-0.818,0.5c-0.196,0.03-0.258,0.121-0.15,0.197c0.105,0.075,0.257,0.166,0.408,0.211&#xD;&#xA;&#x9;&#x9;c0.151,0.046,0.137,0.107,0.047,0.227c-0.189,0.25-0.684,0.501-0.849,0.47c-0.167-0.03-0.183,0.061-0.122,0.137&#xD;&#xA;&#x9;&#x9;c0.06,0.075,0.287,0.181,0.408,0.181c0.123,0,0.133,0.023,0.031,0.151c-0.111,0.14-0.357,0.441-0.577,0.378&#xD;&#xA;&#x9;&#x9;c-0.295-0.085-0.369-0.012-0.277,0.114C51.156,19.209,51.145,19.338,50.72,19.408z"/>
    <g>
      <path fill="#EC1C2E" d="M46.704,16.014c-0.249-0.125-0.529-0.167-0.742-0.076c-0.212,0.091-0.258,0.303-0.016,0.379&#xD;&#xA;&#x9;&#x9;&#x9;c0.242,0.075,0.561,0.075,0.728,0.03S46.916,16.12,46.704,16.014z"/>
      <path fill="#EC1C2E" d="M54.736,16.014c0.25-0.125,0.531-0.167,0.743-0.076c0.211,0.091,0.258,0.303,0.015,0.379&#xD;&#xA;&#x9;&#x9;&#x9;c-0.242,0.075-0.561,0.075-0.728,0.03C54.6,16.302,54.524,16.12,54.736,16.014z"/>
    </g>
  </g>
</svg>