<svg version="1.2" baseProfile="tiny" id="EdgeSVG_Dkalz" x="0px" y="0px" width="101.44px" height="58.583px" viewBox="0 0 101.44 58.583" xmlns:xlink="http://www.w3.org/1999/xlink" xmlns="http://www.w3.org/2000/svg">
  <linearGradient id="SVGID_1_" gradientUnits="userSpaceOnUse" x1="0" y1="29.2915" x2="101.4399" y2="29.2915">
    <stop offset="0" style="stop-color:#000000;stop-opacity:0.5"/>
    <stop offset="1" style="stop-color:#000000;stop-opacity:0.5"/>
  </linearGradient>
  <path style="fill:url(#SVGID_1_);" d="M2.72,58.583c-1.5,0-2.72-1.22-2.72-2.72V2.72C0,1.22,1.22,0,2.72,0h96&#xD;&#xA;&#x9;c1.5,0,2.72,1.22,2.72,2.72v53.143c0,1.5-1.22,2.72-2.72,2.72H2.72z"/>
  <path style="fill:#DE1819;" d="M100.72,55.863c0,1.1-0.9,2-2,2h-96c-1.1,0-2-0.9-2-2V2.72c0-1.1,0.9-2,2-2h96c1.1,0,2,0.9,2,2&#xD;&#xA;&#x9;V55.863z"/>
  <rect x="25.72" y="0.643" style="fill:#FFFFFF;" width="50" height="57.22"/>
  <path style="fill:#DE1819;" d="M51.666,49.677c-0.07,0.668-0.35-6.695-0.455-9.236c-0.045-1.086,0.906-0.986,1.612-0.876&#xD;&#xA;&#x9;c5.854,0.912,8.623,0.332,8.623,0.332c-2.104-3.961-0.626-3.19,0.525-4.152c6.591-5.503,7.992-6.695,7.992-6.695&#xD;&#xA;&#x9;c-3.05-1.034-2.629-0.649-0.666-7.957c-6.361,2.015-5.836,1.419-7.186-1.718c0,0-0.491,0.561-4.469,5.048&#xD;&#xA;&#x9;c-0.562,0.633-1.513,0.209-1.314-0.771c2.067-10.235,2.173-10.656,2.173-10.656c-4.031,2.436-3.878,2.572-4.521,1.314&#xD;&#xA;&#x9;c-2.208-4.312-3.26-6.432-3.26-6.432s-1.052,2.121-3.26,6.432c-0.645,1.257-0.491,1.122-4.522-1.314c0,0,0.105,0.421,2.173,10.656&#xD;&#xA;&#x9;c0.198,0.98-0.752,1.404-1.314,0.771c-3.979-4.487-4.469-5.048-4.469-5.048c-1.35,3.137-0.824,3.733-7.186,1.718&#xD;&#xA;&#x9;c1.963,7.308,2.383,6.923-0.666,7.957c0,0,1.402,1.191,7.992,6.695c1.151,0.961,2.629,0.191,0.525,4.152c0,0,2.769,0.58,8.623-0.332&#xD;&#xA;&#x9;c0.706-0.109,1.657-0.21,1.612,0.876c-0.105,2.542-0.456,9.236-0.456,9.236H51.666z"/>
</svg>
