<svg version="1.2" baseProfile="tiny" id="EdgeSVG_aSQxt" x="0px" y="0px" width="101.44px" height="58.583px" viewBox="0 0 101.44 58.583" xmlns:xlink="http://www.w3.org/1999/xlink" xmlns="http://www.w3.org/2000/svg">
  <linearGradient id="SVGID_1_" gradientUnits="userSpaceOnUse" x1="0" y1="29.2915" x2="101.4399" y2="29.2915">
    <stop offset="0" style="stop-color:#000000;stop-opacity:0.5"/>
    <stop offset="1" style="stop-color:#000000;stop-opacity:0.5"/>
  </linearGradient>
  <path fill="url(#SVGID_1_)" d="M2.72,58.583c-1.5,0-2.72-1.22-2.72-2.72V2.72C0,1.22,1.22,0,2.72,0h96c1.5,0,2.72,1.22,2.72,2.72&#xD;&#xA;&#x9;v53.143c0,1.5-1.22,2.72-2.72,2.72H2.72z"/>
  <path fill="#EC1C2E" d="M98.72,0.72h-96c-1.1,0-2,0.9-2,2v26.572h100V2.72C100.72,1.62,99.82,0.72,98.72,0.72z"/>
  <path d="M0.72,55.863c0,1.1,0.9,2,2,2h96c1.1,0,2-0.9,2-2V29.292h-100V55.863z"/>
  <g>
    <g>
      <path fill="#FFE152" d="M61.456,40.144c0.31-0.3,0.594-0.604,0.791-0.865l-0.883-0.771c0.675-0.753,1.146-1.515,1.584-2.258&#xD;&#xA;&#x9;&#x9;&#x9;l1.021,0.588c0.403-0.681,1.014-1.932,1.223-2.731l-1.111-0.374c0.335-0.953,0.479-1.838,0.601-2.692l1.167,0.151&#xD;&#xA;&#x9;&#x9;&#x9;c0.113-0.783,0.198-2.171,0.085-2.99l-1.17,0.079c-0.053-1.009-0.261-1.881-0.476-2.716l1.137-0.308&#xD;&#xA;&#x9;&#x9;&#x9;c-0.195-0.766-0.646-2.081-1.064-2.794l-1.051,0.522c-0.437-0.912-0.962-1.639-1.479-2.329l0.933-0.719&#xD;&#xA;&#x9;&#x9;&#x9;c-0.474-0.633-1.396-1.675-2.053-2.174l-0.771,0.884c-0.754-0.675-1.518-1.145-2.259-1.584l0.587-1.021&#xD;&#xA;&#x9;&#x9;&#x9;c-0.682-0.403-1.931-1.013-2.73-1.223l-0.374,1.112c-0.953-0.336-1.836-0.479-2.69-0.6l-0.298,2.75&#xD;&#xA;&#x9;&#x9;&#x9;c5.556,0.713,9.849,5.46,9.849,11.21c0,3.375-1.479,6.403-3.824,8.474L61.456,40.144z"/>
      <path fill="#FFE152" d="M56.917,43.246c-0.706,0.313-1.589,0.604-2.164,0.75l-0.308-1.138c-0.836,0.214-1.708,0.422-2.716,0.476&#xD;&#xA;&#x9;&#x9;&#x9;l0.079,1.17c-0.818,0.113-2.207,0.027-2.989-0.085l0.151-1.169c-0.854-0.121-1.739-0.263-2.694-0.6l-0.372,1.112&#xD;&#xA;&#x9;&#x9;&#x9;c-0.801-0.209-2.05-0.82-2.731-1.222l0.588-1.022c-0.378-0.224-0.763-0.455-1.147-0.718l1.593-2.271&#xD;&#xA;&#x9;&#x9;&#x9;c1.841,1.301,4.087,2.064,6.513,2.064c1.381,0,2.703-0.247,3.924-0.7c0,0,0.685,0.423,1.573,0.983&#xD;&#xA;&#x9;&#x9;&#x9;c0.129,0.081,0.35,0.149,0.38,0.34C56.757,42.225,56.917,43.246,56.917,43.246z"/>
      <path fill="#FFE152" d="M46.092,27.416c-2.116,3.235-0.32,6.669,2.475,8.268c4.065,2.322,8.39,4.793,13.224,7.989l1.197-1.558&#xD;&#xA;&#x9;&#x9;&#x9;C55.718,36.762,47.01,30.811,46.092,27.416z"/>
      <path fill="#FFE152" d="M62.988,42.115c-0.379,0.5-0.689,0.929-1.118,1.458c-0.367,0.452,0.169,0.43,0.379,0.459&#xD;&#xA;&#x9;&#x9;&#x9;c1.42,0.203,2.856,1.717,3.417,2.796c0.558,1.078,1.209,1.105,1.636,0.879c0.34-0.181,0.865-0.943-0.119-2.097&#xD;&#xA;&#x9;&#x9;&#x9;c-1.039-1.219-2.457-2.257-3.895-3.426C63.112,42.041,63.047,42.055,62.988,42.115z"/>
      <polygon fill="#FFE152" points="51.675,19.308 50.545,22.822 46.826,22.822 49.846,25.009 48.686,28.52 51.675,26.339 &#xD;&#xA;&#x9;&#x9;&#x9;54.667,28.52 53.521,24.979 56.526,22.836 52.822,22.836 &#x9;&#x9;"/>
    </g>
    <g>
      <circle cx="63.707" cy="43.313" r="0.141"/>
      <circle cx="65.144" cy="44.51" r="0.141"/>
      <circle cx="66.463" cy="45.748" r="0.141"/>
    </g>
    <path fill="none" d="M62.588,42.674c-4.794-3.476-9.839-6.904-13.221-9.906"/>
  </g>
</svg>